<?xml version="1.0" encoding="UTF-8"?>
<svg version="1.1" xmlns="http://www.w3.org/2000/svg" width="1254" height="1254">
<path d="M0 0 C413.82 0 827.64 0 1254 0 C1254 413.82 1254 827.64 1254 1254 C840.18 1254 426.36 1254 0 1254 C0 840.18 0 426.36 0 0 Z " fill="#FDFDFD" transform="translate(0,0)"/>
<path d="M0 0 C0.78761719 0.495 1.57523438 0.99 2.38671875 1.5 C4.02640625 2.50546875 4.02640625 2.50546875 5.69921875 3.53125 C6.93268684 4.34770514 8.1616554 5.17098713 9.38671875 6 C10.04389893 6.44287354 10.7010791 6.88574707 11.37817383 7.34204102 C22.4858235 14.90358657 32.67541321 23.20437689 42.38671875 32.5 C42.93972656 33.02045898 43.49273438 33.54091797 44.0625 34.07714844 C65.67751193 54.48454966 85.1847416 81.65327356 93.38671875 110.5 C93.87093039 111.83914781 94.36994568 113.17307748 94.88671875 114.5 C95.387315 115.83310959 95.88726614 117.16646152 96.38671875 118.5 C96.86625 119.74910156 96.86625 119.74910156 97.35546875 121.0234375 C102.61278741 135.56072015 103.68599194 149.86686058 103.82421875 165.1875 C103.84240662 166.2291481 103.84240662 166.2291481 103.86096191 167.2918396 C104.13302953 185.65721688 99.6152918 200.54638822 86.7890625 214.18359375 C72.0980379 228.34908577 51.26848448 232.66175632 32.04824829 237.36270142 C28.05475416 238.33989422 24.06425412 239.32910366 20.07421875 240.3203125 C19.3035054 240.51174332 18.53279205 240.70317413 17.73872375 240.90040588 C11.50841558 242.45493082 5.31990089 244.13208094 -0.85302734 245.90039062 C-5.51671796 247.22660237 -10.19971002 248.36396377 -14.92578125 249.4375 C-21.30808814 250.88751729 -27.58189763 252.60044249 -33.86328125 254.4375 C-40.70278743 256.43212346 -47.54835521 258.26389739 -54.48828125 259.875 C-76.66962219 265.03637899 -98.65819708 270.99901617 -120.625 276.9987793 C-133.24579759 280.44037438 -145.92041101 283.61563724 -158.63671875 286.68359375 C-159.78597588 286.96086807 -159.78597588 286.96086807 -160.95845032 287.2437439 C-167.22628236 288.75503723 -167.22628236 288.75503723 -170.32617188 289.49731445 C-178.67455202 291.4979566 -186.98638889 293.56804334 -195.24609375 295.91015625 C-207.51131934 299.38121764 -219.91921709 302.28331043 -232.30908203 305.27050781 C-243.25584143 307.91358179 -254.17643455 310.58799424 -265.01339722 313.65336609 C-273.18006526 315.95958624 -281.3936894 318.0737428 -289.62158203 320.1496582 C-291.38500803 320.5963555 -293.1473648 321.04729256 -294.90869141 321.50219727 C-297.50848156 322.17348779 -300.11117186 322.83222964 -302.71484375 323.48828125 C-303.88063461 323.79286003 -303.88063461 323.79286003 -305.06997681 324.10359192 C-310.05101874 325.33903443 -314.48009218 326.02213999 -319.61328125 325.5 C-322.61020432 323.31741481 -323.51163949 322.1170637 -324.11943913 318.42713261 C-324.12224605 317.21183085 -324.12505297 315.9965291 -324.12794495 314.74440002 C-324.13489047 314.06567886 -324.141836 313.38695769 -324.148992 312.68766922 C-324.1672871 310.41327129 -324.15699084 308.13991366 -324.14672852 305.86547852 C-324.15378685 304.23394998 -324.16253151 302.602428 -324.1728363 300.97091675 C-324.19537876 296.53382784 -324.19237496 292.09709496 -324.18351483 287.65997052 C-324.17840042 283.94367372 -324.1857032 280.22744358 -324.19298691 276.51115364 C-324.21000951 267.72311554 -324.20640607 258.93525085 -324.18969727 250.1472168 C-324.17286826 241.12807578 -324.18847704 232.10942202 -324.22092015 223.09033448 C-324.24779634 215.3201024 -324.25484107 207.55002029 -324.24640507 199.77974647 C-324.24151625 195.15178177 -324.24346506 190.52410828 -324.26419258 185.89618111 C-324.44842674 140.10942757 -324.44842674 140.10942757 -313.61328125 120.5 C-313.13503906 119.56671875 -312.65679687 118.6334375 -312.1640625 117.671875 C-299.34107648 93.95090328 -277.20178139 77.72005214 -251.64334106 69.89703369 C-247.06136408 68.61170771 -242.43416178 67.51954695 -237.80078125 66.4375 C-235.14727312 65.80558781 -232.49531976 65.16733606 -229.84375 64.52734375 C-229.17498337 64.36680008 -228.50621674 64.20625641 -227.81718445 64.04084778 C-222.84257042 62.8338233 -217.91408072 61.49329783 -212.98828125 60.1015625 C-202.52480562 57.14940363 -191.97945654 54.54500602 -181.42578125 51.9375 C-169.12612274 48.89265725 -156.84082138 45.82497856 -144.61328125 42.5 C-142.97178101 42.05418579 -142.97178101 42.05418579 -141.29711914 41.59936523 C-139.16935757 41.02078732 -137.04166972 40.44193823 -134.9140625 39.86279297 C-125.83285996 37.39562125 -116.75499127 35.00349512 -107.58007812 32.91137695 C-102.01729845 31.62968977 -96.53320814 30.12362123 -91.04272461 28.5637207 C-85.28080624 26.93658871 -79.49247627 25.43434245 -73.69018555 23.95800781 C-54.23057305 18.99949037 -34.94999635 13.46147727 -16.5703125 5.2734375 C-15.71501953 4.89687012 -14.85972656 4.52030273 -13.97851562 4.13232422 C-12.30986122 3.39215406 -10.64794859 2.63654285 -8.99414062 1.86376953 C-3.3494511 -0.64085163 -3.3494511 -0.64085163 0 0 Z " fill="#6D30E7" transform="translate(631.61328125,763.5)"/>
<path d="M0 0 C2.91997815 2.24286995 3.9055537 3.41272707 4.49777794 7.09521389 C4.4966884 8.32090619 4.49559887 9.54659849 4.49447632 10.80943298 C4.49930515 11.49379868 4.50413398 12.17816437 4.50910914 12.88326842 C4.52037992 15.17639229 4.50306178 17.46840083 4.48583984 19.76147461 C4.48798591 21.40597841 4.49186391 23.05048074 4.49734497 24.69497681 C4.50704829 29.16462755 4.49171734 33.63387947 4.47143888 38.10348201 C4.45386026 42.7885929 4.4573933 47.47369159 4.4581604 52.15882874 C4.45628611 60.03669895 4.43891472 67.91441532 4.41162109 75.79223633 C4.38026709 84.87501607 4.36962152 93.95762674 4.3710922 103.04045671 C4.37244895 112.73083217 4.35852286 122.42114317 4.34019899 132.11149907 C4.33595499 134.89088837 4.33451911 137.67026711 4.33372116 140.44965935 C4.33169521 144.84014454 4.31934829 149.23049062 4.29938889 153.62092972 C4.2936008 155.22318353 4.29107541 156.82545337 4.29224396 158.42771721 C4.30687184 190.72784233 -5.80273445 217.97462144 -28.29296875 241.3203125 C-47.06007401 259.89785104 -71.34271987 267.45756983 -96.41796875 273.41015625 C-101.66788891 274.65722659 -106.84157986 276.04483049 -112 277.625 C-119.67362227 279.96371835 -127.42682137 281.89863497 -135.21484375 283.81640625 C-145.97991661 286.46761788 -156.63844838 289.43587766 -167.24609375 292.65625 C-170.63940572 293.6519873 -174.05674721 294.5104594 -177.49342346 295.34339905 C-186.46898433 297.52579513 -195.24113418 300.13336634 -204 303.0625 C-204.70867218 303.2985495 -205.41734436 303.534599 -206.14749146 303.77780151 C-219.54549194 308.26902661 -232.39440117 313.5887349 -245 320 C-245.83047852 320.4213623 -246.66095703 320.84272461 -247.51660156 321.27685547 C-256.66735362 325.98837055 -265.15784102 331.19637561 -273.23266602 337.59765625 C-276.54102733 340.17742097 -277.65090798 341 -282 341 C-284.6498348 339.83277577 -287.145064 338.61898185 -289.6875 337.25 C-290.43427002 336.85022949 -291.18104004 336.45045898 -291.95043945 336.03857422 C-300.45019543 331.36802642 -308.24867794 325.80731557 -316 320 C-316.61472168 319.54367187 -317.22944336 319.08734375 -317.86279297 318.6171875 C-342.76566575 300.02666637 -363.79668348 277.13717854 -379 250 C-379.36109863 249.36143066 -379.72219727 248.72286133 -380.09423828 248.06494141 C-384.46678288 240.28698825 -388.3526214 232.55306932 -391 224 C-391.50466797 222.40285156 -391.50466797 222.40285156 -392.01953125 220.7734375 C-396.23841086 206.77370965 -398.49210542 193.34557547 -398.28125 178.7487793 C-398.24926947 176.51139156 -398.24018003 174.27470605 -398.234375 172.03710938 C-398.16475888 161.16475888 -398.16475888 161.16475888 -397 160 C-396.69819698 158.54775975 -396.43434016 157.08758564 -396.1875 155.625 C-391.74259089 132.68142504 -376.88849779 112.77860186 -357.75 99.75 C-356.9297937 99.18599487 -356.9297937 99.18599487 -356.09301758 98.6105957 C-344.94110615 91.36601502 -332.7212732 86.9396033 -319.9375 83.5625 C-318.5442071 83.18350308 -317.15122842 82.80334933 -315.75854492 82.42211914 C-312.20044198 81.45199105 -308.63817495 80.49838616 -305.07385254 79.5513916 C-303.0729981 79.01940858 -301.07296429 78.48446434 -299.07324219 77.94824219 C-292.85871708 76.28241086 -286.6414683 74.62726706 -280.421875 72.98046875 C-271.55678514 70.62560585 -262.71817852 68.17824151 -253.87866211 65.72949219 C-246.70737588 63.74373515 -239.5315391 61.78273203 -232.3359375 59.88671875 C-230.4206563 59.37762176 -228.50657708 58.86384013 -226.59619141 58.33666992 C-218.57841421 56.12469568 -210.51535095 54.12566972 -202.43359375 52.16210938 C-201.41652344 51.91138672 -200.39945313 51.66066406 -199.3515625 51.40234375 C-198.44229004 51.18054443 -197.53301758 50.95874512 -196.59619141 50.73022461 C-193.97067151 49.99175084 -191.52540294 49.0240848 -189 48 C-186.50276338 47.38131525 -184.01185328 46.80080906 -181.5 46.25 C-175.20062985 44.82272205 -168.99499837 43.1851078 -162.796875 41.37109375 C-149.51237764 37.53259283 -136.1578912 33.9546095 -122.80452728 30.36500931 C-119.30573361 29.42410378 -115.80744672 28.48131735 -112.30908203 27.53881836 C-100.23108452 24.28558031 -88.15125505 21.03915931 -76.0703125 17.796875 C-75.19093521 17.56081543 -74.31155792 17.32475586 -73.40553284 17.08154297 C-69.28765661 15.97654451 -65.1692186 14.87372846 -61.04956055 13.77539062 C-53.77268763 11.8332309 -46.50310847 9.87050792 -39.25018311 7.84046936 C-35.83664634 6.88556157 -32.42070969 5.93939385 -29.00469971 4.99337769 C-27.4061589 4.54770948 -25.80888507 4.09746533 -24.21307373 3.64212036 C-5.86418942 -1.59319446 -5.86418942 -1.59319446 0 0 Z " fill="#7440EB" transform="translate(919,123)"/>
<path d="M0 0 C0.99 0.495 0.99 0.495 2 1 C1.05640625 1.79921875 0.1128125 2.5984375 -0.859375 3.421875 C-30.73958157 28.90045366 -54.93098716 60.88143515 -59.75 101.0625 C-61.41181188 125.01691024 -58.00538557 148.50425922 -47 170 C-46.47664062 171.11503906 -45.95328125 172.23007812 -45.4140625 173.37890625 C-38.56068527 187.77743352 -29.55834363 200.11790007 -19 212 C-18.2265625 212.88429688 -17.453125 213.76859375 -16.65625 214.6796875 C-8.97555281 223.3610389 -0.84624255 231.50997582 8 239 C9.45019531 240.24910156 9.45019531 240.24910156 10.9296875 241.5234375 C17.86942925 247.480261 24.96074731 253.18215353 32.26367188 258.68896484 C34.07100356 260.05361208 35.87151814 261.42694872 37.671875 262.80078125 C52.81622777 274.30871831 68.52741033 285.01874539 84.2109375 295.77246094 C100.97601438 307.27557319 117.58173528 319.00685555 134 331 C134.68449219 331.49999512 135.36898438 331.99999023 136.07421875 332.51513672 C146.6971253 340.30509696 156.91970655 348.52185645 167 357 C167.65871094 357.55284668 168.31742188 358.10569336 168.99609375 358.67529297 C175.01133734 363.73590409 180.99378438 368.77719145 186.44921875 374.44921875 C188.11790059 376.11790059 189.87814932 377.61045188 191.6875 379.125 C197.62269303 384.2596853 202.78263236 390.15543468 208 396 C208.49016602 396.54543457 208.98033203 397.09086914 209.48535156 397.65283203 C240.06751798 431.84553515 263.66697792 473.2159964 276.4375 517.3125 C276.8082666 518.59253906 276.8082666 518.59253906 277.18652344 519.8984375 C278.26376008 523.77710409 279.1361437 527.54052564 279.59765625 531.54296875 C279.61708306 534.82395694 279.61708306 534.82395694 281 536 C281.37407585 538.28536966 281.69947492 540.57880055 282 542.875 C282.66827329 548.01373754 282.66827329 548.01373754 284 553 C290.39439531 599.62076385 282.75448071 649.15733924 261 691 C260.67 691 260.34 691 260 691 C259.89510254 690.06655762 259.89510254 690.06655762 259.78808594 689.11425781 C256.98623452 664.5642735 253.25867382 639.7207952 243 617 C242.51015625 615.89011719 242.0203125 614.78023437 241.515625 613.63671875 C232.26305441 593.02525709 220.44759006 574.10779671 205.18359375 557.40234375 C203.2707516 555.29787519 201.41054763 553.16112864 199.5625 551 C190.09439153 540.15112571 179.33627242 530.82382753 168 522 C167.44876465 521.57090332 166.8975293 521.14180664 166.32958984 520.69970703 C134.63748711 496.16192976 99.45384632 476.50032981 64.1640625 457.69091797 C59.05611689 454.96116247 53.96549792 452.19961806 48.875 449.4375 C42.91140533 446.20242731 36.94682183 442.96942722 30.97265625 439.75390625 C-15.85973289 414.52510162 -63.83740442 388.28154037 -104 353 C-104.59208252 352.49331787 -105.18416504 351.98663574 -105.79418945 351.46459961 C-119.46557263 339.69775564 -132.61051568 326.79462568 -143 312 C-143.47840332 311.32291992 -143.95680664 310.64583984 -144.44970703 309.94824219 C-148.1102785 304.72086632 -151.58965163 299.39321735 -155 294 C-155.44230957 293.31550781 -155.88461914 292.63101562 -156.34033203 291.92578125 C-176.69585008 260.02338539 -185.06292454 215.16518008 -177.50146484 178.15332031 C-169.33769332 143.09759255 -154.30983233 111.79852437 -130 85 C-129.13117188 84.01128906 -128.26234375 83.02257812 -127.3671875 82.00390625 C-95.35072294 45.86139685 -51.79728207 21.9305742 -7.9375 3.125 C-7.1522998 2.78500977 -6.36709961 2.44501953 -5.55810547 2.09472656 C-3.73085093 1.33237031 -1.86798491 0.65626106 0 0 Z " fill="#884AF9" transform="translate(513,222)"/>
<path d="M0 0 C5.74630235 1.17054307 10.43072904 3.06544868 15.625 5.7734375 C18.68317758 7.35282526 21.82534633 8.67241756 25 10 C26.39699593 10.62239702 27.79274016 11.24760803 29.1875 11.875 C31.63401129 12.97326637 34.0793824 14.03131931 36.57421875 15.015625 C43.71190815 17.84282694 50.41995807 21.24216563 57.17651367 24.86279297 C62.62630648 27.77576833 68.12507137 30.55698783 73.67553711 33.27294922 C87.17261911 39.89184734 100.13200909 47.2363777 113 55 C114.37115967 55.82201904 114.37115967 55.82201904 115.77001953 56.66064453 C137.25163371 69.57289934 157.75768116 83.92978005 177 100 C178.48113281 101.20076172 178.48113281 101.20076172 179.9921875 102.42578125 C188.02617545 109.0300021 195.44664499 116.23232141 202.8125 123.5625 C203.30036987 124.04519348 203.78823975 124.52788696 204.29089355 125.02520752 C230.93663134 151.44779482 254.98937587 186.59279669 261.45703125 224.18359375 C261.70659032 226.89341193 261.70659032 226.89341193 263 228 C264.82441 238.38052752 265.34698242 248.75973264 265.31567383 259.28173828 C265.31250069 261.49951892 265.33615568 263.71597485 265.36132812 265.93359375 C265.41997171 279.42357352 263.31314561 292.17466755 259 305 C258.68095703 305.99386719 258.68095703 305.99386719 258.35546875 307.0078125 C257.88788941 308.4460975 257.40478645 309.87938588 256.91015625 311.30859375 C256.21256816 313.37141861 255.56248756 315.45036175 254.93359375 317.53515625 C249.31223334 335.48077664 239.21775753 351.99095265 228 367 C227.44441406 367.75410156 226.88882813 368.50820313 226.31640625 369.28515625 C216.70222469 381.98878704 206.10030072 393.64571583 194 404 C193.08734375 404.80179688 192.1746875 405.60359375 191.234375 406.4296875 C176.33205806 419.42089694 160.14335305 430.20626581 143 440 C141.89221191 440.63325195 140.78442383 441.26650391 139.64306641 441.91894531 C136.65357222 443.62300949 133.65757859 445.31519348 130.6569519 446.99957275 C128.92428382 447.97233097 127.19367768 448.94875906 125.46313477 449.92529297 C119.83918932 453.05068283 114.28182299 455.84689339 108.26464844 458.12792969 C104.8227577 459.4533322 101.51305494 461.0343642 98.1875 462.625 C94.16859026 464.53758884 90.15658833 466.40070316 86 468 C87.48739804 464.58363262 89.45010477 462.26265692 92 459.5625 C126.32684038 422.04502382 147.40612705 373.80268731 156 324 C156.22429687 322.72213623 156.22429687 322.72213623 156.453125 321.41845703 C166.30770301 262.79008938 152.71503432 202.44394321 126 150 C125.66129883 149.3311377 125.32259766 148.66227539 124.97363281 147.97314453 C119.64131846 137.59110392 113.40040753 127.82886802 106.9375 118.125 C106.56240295 117.5608136 106.18730591 116.9966272 105.80084229 116.41534424 C100.45666573 108.40156208 94.85140783 100.64886231 89 93 C88.47929932 92.31550781 87.95859863 91.63101563 87.42211914 90.92578125 C81.98256096 83.81017696 76.34297912 76.99868062 70.25 70.4296875 C68.37207106 68.40178506 66.54976485 66.34672605 64.75 64.25 C56.39923026 54.67289344 47.59036883 45.50019604 38.625 36.5 C37.98377197 35.85417969 37.34254395 35.20835937 36.68188477 34.54296875 C32.91890479 30.79212273 29.0379697 27.24048916 25.01757812 23.76806641 C20.87368912 20.1366477 16.91033302 16.30760112 12.91210938 12.51757812 C9.67233063 9.46041082 6.41005048 6.469369 3.00390625 3.59765625 C2.01261719 2.74042969 1.02132812 1.88320313 0 1 C0 0.67 0 0.34 0 0 Z " fill="#077CFC" transform="translate(681,509)"/>
<path d="M0 0 C2.34536448 3.51804672 2.19441297 4.77852329 2.0546875 8.91796875 C2.03019531 10.09037109 2.00570312 11.26277344 1.98046875 12.47070312 C1.91070334 14.9292879 1.83270946 17.3876543 1.74609375 19.84570312 C1.62922984 26.13229399 1.7005774 30.7914552 4.97070312 36.23950195 C6.66265439 39.13339678 7.40074686 42.29062893 8.3125 45.5 C15.12174263 68.17543905 26.80454521 90.12171757 41 109 C41.69440186 109.92546631 41.69440186 109.92546631 42.40283203 110.86962891 C47.71812898 117.89610263 53.26561195 124.60149308 59.3203125 131.01171875 C61 133 61 133 62 136 C63.31632794 136.69964489 64.65223681 137.36300973 66 138 C67.640625 139.48046875 67.640625 139.48046875 69.25 141.1875 C72.48350475 144.54024462 75.91204257 147.54755712 79.49609375 150.51953125 C80.24052734 151.25236328 80.24052734 151.25236328 81 152 C81 152.66 81 153.32 81 154 C81.556875 154.2475 82.11375 154.495 82.6875 154.75 C85 156 85 156 87.375 157.9375 C90.1135843 160.08924481 92.84998338 161.53487599 96 163 C96 163.66 96 164.32 96 165 C96.99 165.33 97.98 165.66 99 166 C98.34 166.33 97.68 166.66 97 167 C74.4440251 152.45038016 53.56549318 135.21905045 37 114 C36.18789063 112.99324219 35.37578125 111.98648438 34.5390625 110.94921875 C28.23798041 103.06435774 22.94763586 94.78935582 18 86 C17.63600098 85.35708008 17.27200195 84.71416016 16.89697266 84.05175781 C12.52769477 76.27853025 8.64563499 68.54743611 6 60 C5.66355469 58.93523437 5.32710937 57.87046875 4.98046875 56.7734375 C3.903487 53.19963291 2.92954471 49.61489608 2 46 C1.69707031 44.83339844 1.39414062 43.66679687 1.08203125 42.46484375 C-1.80115448 29.59202857 -3.76112054 12.77575013 0 0 Z " fill="#3E1AB7" transform="translate(522,287)"/>
<path d="M0 0 C1.58179615 -0.10867302 3.16577153 -0.18589827 4.75 -0.25 C5.63171875 -0.29640625 6.5134375 -0.3428125 7.421875 -0.390625 C10.90121698 0.13654803 11.85158397 1.24098764 14 4 C14.49777794 7.09521389 14.49777794 7.09521389 14.49447632 10.80943298 C14.49930515 11.49379868 14.50413398 12.17816437 14.50910914 12.88326842 C14.52037992 15.17639229 14.50306178 17.46840083 14.48583984 19.76147461 C14.48798591 21.40597841 14.49186391 23.05048074 14.49734497 24.69497681 C14.50704829 29.16462755 14.49171734 33.63387947 14.47143888 38.10348201 C14.45386026 42.7885929 14.4573933 47.47369159 14.4581604 52.15882874 C14.45628611 60.03669895 14.43891472 67.91441532 14.41162109 75.79223633 C14.38026709 84.87501607 14.36962152 93.95762674 14.3710922 103.04045671 C14.37244895 112.73083217 14.35852286 122.42114317 14.34019899 132.11149907 C14.33595499 134.89088837 14.33451911 137.67026711 14.33372116 140.44965935 C14.33169521 144.84014454 14.31934829 149.23049062 14.29938889 153.62092972 C14.2936008 155.22318353 14.29107541 156.82545337 14.29224396 158.42771721 C14.29763235 170.32594365 13.62781707 181.92895489 9.875 193.3125 C9.34519531 194.94638672 9.34519531 194.94638672 8.8046875 196.61328125 C8.53914062 197.40089844 8.27359375 198.18851563 8 199 C7.34 198.67 6.68 198.34 6 198 C6 197.01 6 196.02 6 195 C6.66 195 7.32 195 8 195 C8.06058594 194.26394531 8.12117187 193.52789062 8.18359375 192.76953125 C8.30927734 191.30580078 8.30927734 191.30580078 8.4375 189.8125 C8.51871094 188.84957031 8.59992187 187.88664063 8.68359375 186.89453125 C9 184 9 184 9.48524857 181.61881161 C11.41752128 171.78832281 11.15439318 161.70290645 11.16113281 151.72827148 C11.16577078 150.11414987 11.17079672 148.50002934 11.17617798 146.88591003 C11.18919355 142.53532659 11.19572331 138.18475849 11.20018864 133.83415866 C11.20313171 131.11489646 11.20723835 128.39563836 11.21169281 125.67637825 C11.22532737 117.1633368 11.23501867 108.65030483 11.2388947 100.13725322 C11.24339213 90.31576525 11.26103442 80.49441528 11.2898953 70.67296928 C11.31146454 63.06937926 11.32159611 55.46582826 11.32293582 47.86220795 C11.32398552 43.3238756 11.32993069 38.78567371 11.34775543 34.24737358 C11.36415803 29.98978749 11.36643006 25.73243121 11.35761642 21.47482491 C11.35684234 19.90985628 11.36123725 18.34487564 11.37107468 16.77993774 C11.3836808 14.65053414 11.37798112 12.52195919 11.36749268 10.39256287 C11.36895924 9.19930106 11.3704258 8.00603926 11.3719368 6.776618 C11.24919765 5.86033406 11.12645851 4.94405012 11 4 C8.17623287 1.71687177 8.17623287 1.71687177 4.9375 2 C3.968125 2 2.99875 2 2 2 C1.34 1.34 0.68 0.68 0 0 Z " fill="#9452FA" transform="translate(909,123)"/>
<path d="M0 0 C4.72746524 1.49008285 8.03712174 4.27145622 11.6875 7.5 C12.33251465 8.06750977 12.9775293 8.63501953 13.64208984 9.21972656 C27.57630176 21.64331984 40.28292783 34.68222267 51 50 C51.41008301 50.58136719 51.82016602 51.16273438 52.24267578 51.76171875 C61.82465941 65.51553213 70.40310568 80.83339412 75 97 C76.23394746 100.49030853 77.52812877 103.95061472 79.046875 107.328125 C80.13643965 110.38247836 80.41196232 113.08142854 80.625 116.3125 C80.73714844 117.91544922 80.73714844 117.91544922 80.8515625 119.55078125 C80.90054688 120.35902344 80.94953125 121.16726563 81 122 C80.34 122 79.68 122 79 122 C78.896875 121.01 78.79375 120.02 78.6875 119 C78.18777587 115.44481976 77.07502508 112.40508656 75.74609375 109.0859375 C74.99107084 106.97503574 74.54208589 104.95062458 74.125 102.75 C72.72607817 95.97874812 70.02316673 89.30384124 66.4140625 83.41015625 C64.42597118 80.02161387 63.84236962 76.82306214 63 73 C62.34 73 61.68 73 61 73 C60.63648438 72.23816406 60.27296875 71.47632813 59.8984375 70.69140625 C52.99666071 56.51621853 39.39299905 31.74403238 24 26 C20 21.67567568 20 21.67567568 20 19 C19.443125 18.814375 18.88625 18.62875 18.3125 18.4375 C15.38991558 16.62075833 14.06838968 14.43244405 12.24609375 11.55859375 C10.98639666 9.69351671 10.98639666 9.69351671 8 9 C5.8125 7.0625 5.8125 7.0625 4 5 C4 4.34 4 3.68 4 3 C2.68 2.67 1.36 2.34 0 2 C0 1.34 0 0.68 0 0 Z " fill="#2B17B3" transform="translate(650,777)"/>
<path d="M0 0 C0.66 0.99 1.32 1.98 2 3 C1.40781343 5.02330411 0.72045764 7.0187415 0 9 C-0.35668456 10.66182581 -0.68843862 12.32912646 -1 14 C-1.52400067 16.78091693 -2.07860672 19.21270054 -3.0625 21.875 C-5.9860572 31.62019068 -5.15857456 42.52110851 -5.17700195 52.61914062 C-5.18328297 54.15134835 -5.18993116 55.6835546 -5.19691467 57.21575928 C-5.21772699 62.1959125 -5.2282813 67.17606533 -5.23828125 72.15625 C-5.24233452 73.87855545 -5.2464516 75.60086075 -5.25063133 77.32316589 C-5.26961647 85.40264924 -5.28387276 93.48212371 -5.2922433 101.561625 C-5.30205294 110.87317445 -5.32849665 120.18448857 -5.36874419 129.49595499 C-5.3988609 136.7114884 -5.4137071 143.92695398 -5.41702431 151.14254904 C-5.4193757 155.44623937 -5.42835115 159.74967625 -5.45348549 164.05329895 C-5.47669984 168.09181168 -5.48102659 172.1299026 -5.47072411 176.16846466 C-5.47022736 177.65036165 -5.47658866 179.13227904 -5.49028015 180.61411285 C-5.50791196 182.63512122 -5.49853611 184.65631168 -5.48774719 186.67736816 C-5.49013555 187.80849281 -5.4925239 188.93961746 -5.49498463 190.10501862 C-4.88825489 193.65355569 -3.83061133 194.84100517 -1 197 C2.16374283 197.3858223 3.95713516 197.01428828 7 196 C7 196.66 7 197.32 7 198 C3.87057535 199.56471233 0.38917777 199.69701958 -3 199 C-5.91159537 196.77262 -6.90297602 195.58902932 -7.50615788 191.92713261 C-7.5089648 190.71183085 -7.51177172 189.4965291 -7.5146637 188.24440002 C-7.52160922 187.56567886 -7.52855475 186.88695769 -7.53571075 186.18766922 C-7.55400585 183.91327129 -7.54370959 181.63991366 -7.53344727 179.36547852 C-7.5405056 177.73394998 -7.54925026 176.102428 -7.55955505 174.47091675 C-7.58209751 170.03382784 -7.57909371 165.59709496 -7.57023358 161.15997052 C-7.56511917 157.44367372 -7.57242195 153.72744358 -7.57970566 150.01115364 C-7.59672826 141.22311554 -7.59312482 132.43525085 -7.57641602 123.6472168 C-7.55958701 114.62807578 -7.57519579 105.60942202 -7.6076389 96.59033448 C-7.63451509 88.8201024 -7.64155982 81.05002029 -7.63312382 73.27974647 C-7.628235 68.65178177 -7.63018381 64.02410828 -7.65091133 59.39618111 C-7.81586913 18.42195161 -7.81586913 18.42195161 0 0 Z " fill="#8E3AFA" transform="translate(315,890)"/>
<path d="M0 0 C7.33126033 1.40985776 13.43032485 4.51807217 20 8 C19.67 8.66 19.34 9.32 19 10 C16.03 9.505 16.03 9.505 13 9 C13.721875 9.721875 14.44375 10.44375 15.1875 11.1875 C23 19 23 19 24.625 20.75 C26.09616618 22.25659086 26.09616618 22.25659086 29 23 C29 23.66 29 24.32 29 25 C29.99 25.33 30.98 25.66 32 26 C33.578125 27.6015625 33.578125 27.6015625 35.25 29.625 C40.88338558 36.68768648 40.88338558 36.68768648 48 42 C48 42.66 48 43.32 48 44 C48.99 44.33 49.98 44.66 51 45 C52.5 46.5234375 52.5 46.5234375 54 48.375 C55.9077284 50.70998007 57.86613634 52.87181151 60 55 C60.825 56.010625 61.65 57.02125 62.5 58.0625 C64.85455699 61.101019 64.85455699 61.101019 68 63 C67.67 63.99 67.34 64.98 67 66 C65.47580995 64.50341097 63.95585169 63.00251195 62.4375 61.5 C61.59058594 60.6646875 60.74367188 59.829375 59.87109375 58.96875 C57.73318389 56.80685658 55.73236323 54.55893288 53.75 52.25390625 C49.56855473 47.43200816 45.08459945 42.93804854 40.5625 38.4375 C39.75490234 37.62603516 38.94730469 36.81457031 38.11523438 35.97851562 C33.85234976 31.72250109 29.51618228 27.62738683 24.94946289 23.69995117 C20.82111272 20.09998847 16.88675031 16.28524644 12.91210938 12.51757812 C9.67233063 9.46041082 6.41005048 6.469369 3.00390625 3.59765625 C2.01261719 2.74042969 1.02132812 1.88320313 0 1 C0 0.67 0 0.34 0 0 Z " fill="#0F56FA" transform="translate(681,509)"/>
<path d="M0 0 C5.06917852 7.60376778 4.37258296 17.24632476 4.37060547 26.06396484 C4.37496433 28.23225386 4.41134026 30.39847741 4.44921875 32.56640625 C4.5208699 41.51081551 3.73332926 49.69183355 0 58 C-0.99 58.495 -0.99 58.495 -2 59 C-2.22448783 55.07146292 -1.46086929 52.60920649 0 49 C2.77389732 33.09373565 0.72695794 16.03754283 0 0 Z " fill="#301EB8" transform="translate(731,900)"/>
<path d="M0 0 C0.6875 1.6875 0.6875 1.6875 1 4 C-0.3125 6.75 -0.3125 6.75 -2 9 C-2.66 9 -3.32 9 -4 9 C-4.226875 9.680625 -4.45375 10.36125 -4.6875 11.0625 C-6.31226146 14.6988709 -8.32803257 18.02829263 -11 21 C-11.66 21 -12.32 21 -13 21 C-13.103125 21.58652344 -13.20625 22.17304687 -13.3125 22.77734375 C-14.10741957 25.34728258 -15.17754419 26.60423618 -17 28.5625 C-19.11833137 30.84887208 -19.98917686 31.96753059 -21 35 C-19.576875 34.2265625 -19.576875 34.2265625 -18.125 33.4375 C-17.09375 32.963125 -16.0625 32.48875 -15 32 C-14.34 32.33 -13.68 32.66 -13 33 C-18.61 35.97 -24.22 38.94 -30 42 C-30 37.89505283 -28.44473353 37.04884676 -25.625 34.125 C-16.24190334 24.14612453 -6.14450612 12.28901224 0 0 Z " fill="#1761FA" transform="translate(798,935)"/>
<path d="M0 0 C-5.05775813 1.41800196 -10.11866628 2.82418194 -15.18212891 4.22167969 C-17.03638768 4.73384196 -18.8902412 5.24747406 -20.74365234 5.76269531 C-34.79792993 9.66053263 -48.91621671 13.29677272 -63.07247925 16.80410767 C-64.93582437 17.26679383 -66.79840296 17.73257836 -68.66018677 18.20150757 C-71.28947083 18.8624528 -73.9215231 19.51096239 -76.5546875 20.15625 C-77.34837234 20.35793289 -78.14205719 20.55961578 -78.95979309 20.76741028 C-82.69926566 21.6696067 -85.32385905 22.13347096 -89 21 C-84.37337074 19.65621469 -79.74006169 18.40796316 -75.0625 17.25 C-73.67315551 16.90503477 -72.28383421 16.55997618 -70.89453125 16.21484375 C-70.12963379 16.02519043 -69.36473633 15.83553711 -68.57666016 15.64013672 C-63.46621293 14.37051453 -58.35836847 13.09045508 -53.25 11.8125 C-51.19271764 11.29813987 -49.13542653 10.78381472 -47.078125 10.26953125 C-46.19543945 10.04885986 -45.31275391 9.82818848 -44.40332031 9.60083008 C-42.87158985 9.21789746 -41.33933359 8.83705768 -39.80639648 8.45898438 C-37.78041195 7.94420523 -35.80523459 7.31882653 -33.8125 6.6875 C-26.98597463 4.6182412 -20.03395735 3.0737206 -13.08105469 1.49560547 C-11.64858687 1.15446168 -10.22214586 0.78730821 -8.80175781 0.39892578 C-3.30049013 -1.10016338 -3.30049013 -1.10016338 0 0 Z " fill="#9143FB" transform="translate(467,1051)"/>
<path d="M0 0 C1 3 1 3 0.06640625 5.19921875 C-9.38467196 20.83645725 -23.88967659 29.49344826 -41 35 C-43.33595171 35.44290739 -45.6339709 35.7367717 -48 36 C-48 35.34 -48 34.68 -48 34 C-47.1028125 33.731875 -46.205625 33.46375 -45.28125 33.1875 C-37.99122114 30.89806945 -31.09182119 28.29275768 -24.25 24.875 C-23.57130859 24.53855469 -22.89261719 24.20210937 -22.19335938 23.85546875 C-19.02367019 22.23048118 -16.31377371 20.7330984 -14 18 C-12.37347684 16.29413425 -10.70993434 14.6222454 -9 13 C-8.34 13 -7.68 13 -7 13 C-6.89816406 12.43796875 -6.79632812 11.8759375 -6.69140625 11.296875 C-5.86351889 8.54660512 -4.56801382 6.60904126 -2.9375 4.25 C-2.38964844 3.45078125 -1.84179688 2.6515625 -1.27734375 1.828125 C-0.85582031 1.22484375 -0.43429687 0.6215625 0 0 Z " fill="#4023C7" transform="translate(728,960)"/>
<path d="M0 0 C4.94065657 0.62785861 8.92379172 2.75373911 13.30859375 4.97265625 C14.11176529 5.37399277 14.91493683 5.77532928 15.7424469 6.18882751 C17.44424365 7.04089489 19.14456616 7.8959122 20.84350586 8.75366211 C23.39394748 10.04052493 25.94941264 11.31691349 28.50585938 12.59179688 C38.1835848 17.43966919 47.67548705 22.5003875 57 28 C56.505 29.485 56.505 29.485 56 31 C55.37351562 30.65066406 54.74703125 30.30132813 54.1015625 29.94140625 C52.87566406 29.25884766 52.87566406 29.25884766 51.625 28.5625 C50.40683594 27.88380859 50.40683594 27.88380859 49.1640625 27.19140625 C47.79003378 26.4349464 46.40290739 25.70145369 45 25 C45 24.34 45 23.68 45 23 C42.02588876 21.76078698 39.14737182 20.69941596 36 20 C36 19.34 36 18.68 36 18 C35.13375 17.9175 34.2675 17.835 33.375 17.75 C29.48891601 16.88642578 27.26034805 15.24148928 24 13 C23.113125 12.71125 22.22625 12.4225 21.3125 12.125 C17.06988248 10.68411103 13.3803229 8.54156579 9.48828125 6.33984375 C6.98279337 4.89907492 6.98279337 4.89907492 4 4 C4 3.34 4 2.68 4 2 C2.68 1.34 1.36 0.68 0 0 Z " fill="#0D59FA" transform="translate(727,530)"/>
<path d="M0 0 C0.515625 0.268125 1.03125 0.53625 1.5625 0.8125 C4.11548584 2.10576195 4.11548584 2.10576195 7.375 3.25 C11.5494653 5.00814413 14.03792985 7.60445616 17 11 C17 11.66 17 12.32 17 13 C17.8353125 13.37125 17.8353125 13.37125 18.6875 13.75 C21 15 21 15 23.375 16.9375 C26.1135843 19.08924481 28.84998338 20.53487599 32 22 C32 22.66 32 23.32 32 24 C32.99 24.33 33.98 24.66 35 25 C34.01 25.495 34.01 25.495 33 26 C21.5125052 18.5900484 9.75969939 10.6417574 0 1 C0 0.67 0 0.34 0 0 Z " fill="#4420BB" transform="translate(586,428)"/>
<path d="M0 0 C0.66 0.99 1.32 1.98 2 3 C1.40781343 5.02330411 0.72045764 7.0187415 0 9 C-0.53050409 11.47166677 -0.99092124 13.94941832 -1.4375 16.4375 C-2 19 -2 19 -2.9921875 21.7265625 C-4.28302021 25.91926719 -4.70144713 30.02143202 -5.125 34.375 C-5.21136719 35.20644531 -5.29773438 36.03789063 -5.38671875 36.89453125 C-5.59718843 38.92907147 -5.79943314 40.9644597 -6 43 C-6.33 43 -6.66 43 -7 43 C-7.86400297 28.35034958 -5.98886994 13.54492081 0 0 Z " fill="#9547FC" transform="translate(315,890)"/>
<path d="M0 0 C0.99 0.33 1.98 0.66 3 1 C2.52691406 1.43828125 2.05382812 1.8765625 1.56640625 2.328125 C-5.08279223 8.70513407 -11.05288454 15.84430636 -15.63671875 23.86328125 C-16.08660156 24.56839844 -16.53648437 25.27351563 -17 26 C-17.66 26 -18.32 26 -19 26 C-17.61271415 15.4148189 -7.39021373 6.98132895 0 0 Z " fill="#5F2BE0" transform="translate(552,230)"/>
<path d="M0 0 C0.99 0.33 1.98 0.66 3 1 C3 4.96 3 8.92 3 13 C3.66 13 4.32 13 5 13 C4.979375 14.093125 4.95875 15.18625 4.9375 16.3125 C4.81455548 19.94384191 4.81455548 19.94384191 6 23 C7.32 22.34 8.64 21.68 10 21 C9.57405412 22.44096586 9.13373367 23.87768712 8.6875 25.3125 C8.44386719 26.11300781 8.20023438 26.91351562 7.94921875 27.73828125 C6.94839972 30.1229488 5.85603953 31.24964243 4 33 C3.51978342 29.18763149 3.04102019 25.37508177 2.5625 21.5625 C2.42779297 20.49322266 2.29308594 19.42394531 2.15429688 18.32226562 C1.38909205 12.21929057 0.66229912 6.11501417 0 0 Z " fill="#A06DFA" transform="translate(769,880)"/>
<path d="M0 0 C7.33126033 1.40985776 13.43032485 4.51807217 20 8 C19.67 8.66 19.34 9.32 19 10 C16.03 9.505 16.03 9.505 13 9 C13.99 9.99 14.98 10.98 16 12 C15.67 12.99 15.34 13.98 15 15 C14.50371094 14.49210938 14.00742187 13.98421875 13.49609375 13.4609375 C10.10159538 10.02135091 6.70111769 6.67325536 3 3.5625 C2.01 2.716875 1.02 1.87125 0 1 C0 0.67 0 0.34 0 0 Z " fill="#195FF9" transform="translate(681,509)"/>
<path d="M0 0 C3.20083417 0.58580484 4.90099912 1.50509124 7.25 3.73828125 C7.85312012 4.30562988 8.45624023 4.87297852 9.07763672 5.45751953 C10.02920654 6.37573486 10.02920654 6.37573486 11 7.3125 C11.65629395 7.93753418 12.31258789 8.56256836 12.98876953 9.20654297 C15.00041907 11.12965074 17.00044807 13.06432677 19 15 C19.61198242 15.58475098 20.22396484 16.16950195 20.85449219 16.77197266 C22.53714303 18.38051228 24.20821717 20.00004069 25.875 21.625 C26.3803125 22.10880127 26.885625 22.59260254 27.40625 23.09106445 C29.91471434 25.57631849 31.61247907 27.41121922 32 31 C29.16189506 28.16732165 26.33214153 25.32685128 23.51171875 22.4765625 C14.76559798 13.62118644 14.76559798 13.62118644 5.51953125 5.296875 C3.57189919 3.63462861 1.77253163 1.84638711 0 0 Z " fill="#A170F7" transform="translate(687,748)"/>
<path d="M0 0 C-5.73630189 2.69432361 -11.46164503 4.25887921 -17.625 5.6875 C-18.553125 5.91244141 -19.48125 6.13738281 -20.4375 6.36914062 C-24.73896756 7.3828819 -28.55954596 8.12479836 -33 8 C-29.39480634 4.39480634 -23.90183728 3.99644735 -19.05102539 2.8034668 C-17.0706999 2.31452456 -15.09498796 1.80943131 -13.11914062 1.30273438 C-11.87455078 0.99271484 -10.62996094 0.68269531 -9.34765625 0.36328125 C-8.20304932 0.07751221 -7.05844238 -0.20825684 -5.87915039 -0.50268555 C-3 -1 -3 -1 0 0 Z " fill="#5026D3" transform="translate(671,998)"/>
<path d="M0 0 C0.66 0 1.32 0 2 0 C0.6897432 3.64816598 -0.90959495 6.4216294 -3.25 9.5 C-7.40662384 15.26873162 -10.21171462 21.48378729 -13 28 C-13.33 28 -13.66 28 -14 28 C-14.85722904 21.7271004 -11.95207426 17.92212238 -8.6875 12.875 C-8.18798828 12.07707031 -7.68847656 11.27914063 -7.17382812 10.45703125 C-2.37389773 2.84071785 -2.37389773 2.84071785 0 0 Z " fill="#7235F5" transform="translate(368,326)"/>
<path d="M0 0 C0.33 0 0.66 0 1 0 C1.04996415 4.7831068 1.08598256 9.56605696 1.10986328 14.34936523 C1.11983357 15.97178804 1.13341469 17.59419329 1.15087891 19.21655273 C1.24668605 28.35486341 1.19205805 37.05753997 -1 46 C-1.66 45.34 -2.32 44.68 -3 44 C-2.9765625 41.1796875 -2.9765625 41.1796875 -2.625 37.875 C-2.51414062 36.77929688 -2.40328125 35.68359375 -2.2890625 34.5546875 C-2.14597656 33.29011719 -2.14597656 33.29011719 -2 32 C-1.34 32 -0.68 32 0 32 C0 21.44 0 10.88 0 0 Z " fill="#39B4FD" transform="translate(945,753)"/>
<path d="M0 0 C3.17152571 5.75714708 2.63682263 11.02013287 0.87890625 17.14453125 C-0.33474632 21.12386465 -1.64831193 25.06562222 -3 29 C-3.66 28.67 -4.32 28.34 -5 28 C-5 27.01 -5 26.02 -5 25 C-4.34 25 -3.68 25 -3 25 C-2.93941406 24.26394531 -2.87882813 23.52789062 -2.81640625 22.76953125 C-2.73261719 21.79371094 -2.64882813 20.81789063 -2.5625 19.8125 C-2.48128906 18.84957031 -2.40007813 17.88664062 -2.31640625 16.89453125 C-2.02294908 14.20994161 -1.54217558 11.64310597 -1 9 C-0.79371915 7.39814009 -0.60532699 5.793844 -0.4375 4.1875 C-0.35371094 3.39730469 -0.26992188 2.60710937 -0.18359375 1.79296875 C-0.12300781 1.20128906 -0.06242188 0.60960937 0 0 Z " fill="#9B5BFA" transform="translate(920,293)"/>
<path d="M0 0 C2.42873808 3.64310713 2.1197334 4.91648811 1.7578125 9.19921875 C1.66113281 10.40771484 1.56445312 11.61621094 1.46484375 12.86132812 C1.35269531 14.12396484 1.24054687 15.38660156 1.125 16.6875 C0.96837891 18.59885742 0.96837891 18.59885742 0.80859375 20.54882812 C0.54893184 23.70017954 0.27900223 26.85031158 0 30 C-0.33 30 -0.66 30 -1 30 C-1.02902996 25.75001434 -1.04680887 21.50005419 -1.0625 17.25 C-1.07087891 16.0434375 -1.07925781 14.836875 -1.08789062 13.59375 C-1.09111328 12.43359375 -1.09433594 11.2734375 -1.09765625 10.078125 C-1.10289307 9.00981445 -1.10812988 7.94150391 -1.11352539 6.84082031 C-1.01503008 4.37610765 -0.71565464 2.34754533 0 0 Z " fill="#4921C7" transform="translate(522,287)"/>
<path d="M0 0 C0.6875 1.75 0.6875 1.75 1 4 C-0.1875 5.8125 -0.1875 5.8125 -2 8 C-3.3586245 10.32280962 -4.68901241 12.65094417 -6 15 C-6.7486238 16.31328544 -7.49857071 17.62581777 -8.25 18.9375 C-8.8275 19.948125 -9.405 20.95875 -10 22 C-10.66 22 -11.32 22 -12 22 C-10.67219091 17.5739697 -8.92222599 13.84339941 -6.5625 9.875 C-5.96566406 8.86179687 -5.36882812 7.84859375 -4.75390625 6.8046875 C-3.26917682 4.43044311 -1.72385664 2.20358433 0 0 Z " fill="#9C55FC" transform="translate(328,868)"/>
<path d="M0 0 C0.66 0 1.32 0 2 0 C1.95875 0.845625 1.9175 1.69125 1.875 2.5625 C2.01421935 6.39103212 2.85995797 9.33986507 4 13 C4.54781375 14.97747404 5.08917971 16.95674255 5.625 18.9375 C5.88539063 19.89527344 6.14578125 20.85304688 6.4140625 21.83984375 C6.60742188 22.55269531 6.80078125 23.26554687 7 24 C6.34 24.33 5.68 24.66 5 25 C4.15270806 22.33708249 3.32209568 19.67070002 2.5 17 C2.14228516 15.88431641 2.14228516 15.88431641 1.77734375 14.74609375 C0.22493828 9.64533293 -0.24228342 5.33023532 0 0 Z " fill="#6728F1" transform="translate(337,455)"/>
<path d="M0 0 C4.8603687 1.5194373 8.06079356 4.32918654 11.8125 7.625 C12.7087207 8.3984375 12.7087207 8.3984375 13.62304688 9.1875 C15.08712409 10.45246272 16.54427155 11.72543834 18 13 C17.01 13.99 16.02 14.98 15 16 C14.401875 15.030625 13.80375 14.06125 13.1875 13.0625 C11.28872491 9.76947958 11.28872491 9.76947958 8 9 C5.8125 7.0625 5.8125 7.0625 4 5 C4 4.34 4 3.68 4 3 C2.68 2.67 1.36 2.34 0 2 C0 1.34 0 0.68 0 0 Z " fill="#351BC4" transform="translate(650,777)"/>
<path d="M0 0 C0.66 0.33 1.32 0.66 2 1 C0.59785066 2.36919284 -0.82228473 3.71998709 -2.25 5.0625 C-3.43335938 6.19365234 -3.43335938 6.19365234 -4.640625 7.34765625 C-7 9 -7 9 -9.109375 8.87109375 C-11 8 -11 8 -14 6 C-11.71220962 4.96959833 -9.42048864 3.95047982 -7.125 2.9375 C-6.47402344 2.64294922 -5.82304687 2.34839844 -5.15234375 2.04492188 C-3.45989459 1.30338487 -1.73131425 0.64560999 0 0 Z " fill="#954EF8" transform="translate(513,222)"/>
<path d="M0 0 C5.75 1.875 5.75 1.875 8 3 C8 3.66 8 4.32 8 5 C8.69867187 5.12117188 9.39734375 5.24234375 10.1171875 5.3671875 C11.48230469 5.61855469 11.48230469 5.61855469 12.875 5.875 C13.77992188 6.03742188 14.68484375 6.19984375 15.6171875 6.3671875 C18 7 18 7 20 9 C18.24316406 10.11083984 18.24316406 10.11083984 16 11 C14.07714844 10.40087891 14.07714844 10.40087891 12.109375 9.2265625 C11.40039062 8.8140625 10.69140625 8.4015625 9.9609375 7.9765625 C9.23132813 7.53054688 8.50171875 7.08453125 7.75 6.625 C7.00492188 6.18671875 6.25984375 5.7484375 5.4921875 5.296875 C3.65295875 4.21220164 1.82531676 3.10792483 0 2 C0 1.34 0 0.68 0 0 Z " fill="#582FD2" transform="translate(622,454)"/>
<path d="M0 0 C2.67927341 4.01891012 2.15601248 6.24161923 2 11 C1.34 11 0.68 11 0 11 C0.08378906 11.59167969 0.16757812 12.18335938 0.25390625 12.79296875 C0.80889424 17.09939457 1.23226652 20.75552644 0 25 C-0.33 25 -0.66 25 -1 25 C-1.02900455 21.3958502 -1.04680018 17.79173038 -1.0625 14.1875 C-1.07087891 13.16333984 -1.07925781 12.13917969 -1.08789062 11.08398438 C-1.09111328 10.10107422 -1.09433594 9.11816406 -1.09765625 8.10546875 C-1.10289307 7.19949951 -1.10812988 6.29353027 -1.11352539 5.36010742 C-1 3 -1 3 0 0 Z " fill="#692AF3" transform="translate(335,411)"/>
<path d="M0 0 C0.33 0.66 0.66 1.32 1 2 C-0.39229003 3.73202093 -1.78900556 5.46048484 -3.1875 7.1875 C-3.96480469 8.15042969 -4.74210937 9.11335938 -5.54296875 10.10546875 C-7.91808927 12.90350421 -10.37082777 15.4455467 -13 18 C-12.68423915 12.59132214 -9.52468969 9.86488188 -5.9375 6.1875 C-5.08575195 5.2912793 -5.08575195 5.2912793 -4.21679688 4.37695312 C-2.81990517 2.90962991 -1.41109872 1.4536658 0 0 Z " fill="#7534F5" transform="translate(386,304)"/>
<path d="M0 0 C1.07908598 2.74971909 1.05073828 3.85789156 0.0390625 6.69140625 C-0.42757812 7.63886719 -0.89421875 8.58632813 -1.375 9.5625 C-2.74403199 12.38087033 -4.00837492 15.02512477 -5 18 C-6 17 -6 17 -6.0546875 15.21484375 C-5.5653187 9.01262611 -3.67746231 4.98017958 0 0 Z " fill="#5D2FD9" transform="translate(531,258)"/>
<path d="M0 0 C1 3 1 3 -0.0390625 5.3046875 C-2.9915191 10.08970338 -5.77343597 14.2706788 -10 18 C-10.66 17.67 -11.32 17.34 -12 17 C-10.625 15 -10.625 15 -9 13 C-8.34 13 -7.68 13 -7 13 C-6.89816406 12.43796875 -6.79632812 11.8759375 -6.69140625 11.296875 C-5.86351889 8.54660512 -4.56801382 6.60904126 -2.9375 4.25 C-2.38964844 3.45078125 -1.84179688 2.6515625 -1.27734375 1.828125 C-0.85582031 1.22484375 -0.43429687 0.6215625 0 0 Z " fill="#311DBE" transform="translate(728,960)"/>
<path d="M0 0 C7.45781112 1.20287276 12.72771068 3.83593319 19 8 C18.67 8.66 18.34 9.32 18 10 C17.49210938 9.73445312 16.98421875 9.46890625 16.4609375 9.1953125 C12.37781098 7.10022511 8.4126938 5.32380814 4 4 C4 3.34 4 2.68 4 2 C2.68 2 1.36 2 0 2 C0 1.34 0 0.68 0 0 Z " fill="#1159FA" transform="translate(703,519)"/>
<path d="M0 0 C3.20478848 1.64817693 5.41087199 3.3253731 7.625 6.125 C9.74604217 9.20979125 9.74604217 9.20979125 13 10 C13 10.66 13 11.32 13 12 C13.99 12.33 14.98 12.66 16 13 C15.01 13.66 14.02 14.32 13 15 C10.82722286 12.88094537 8.66173092 10.75527122 6.5 8.625 C5.87996094 8.02171875 5.25992188 7.4184375 4.62109375 6.796875 C4.03457031 6.21679688 3.44804688 5.63671875 2.84375 5.0390625 C2.29912109 4.50490723 1.75449219 3.97075195 1.19335938 3.42041016 C0 2 0 2 0 0 Z " fill="#175AF8" transform="translate(697,522)"/>
<path d="M0 0 C4.01984912 6.02977369 4.25729264 12.92445235 4 20 C0.44714606 16.38047052 0.46127923 12.56194538 0.3125 7.75 C0.27833984 7.00492188 0.24417969 6.25984375 0.20898438 5.4921875 C0.12685946 3.66197508 0.06174347 1.83101331 0 0 Z " fill="#3A2DBC" transform="translate(731,900)"/>
<path d="M0 0 C0.66 0 1.32 0 2 0 C0.43551329 5.6143991 -1.16395187 10.86810338 -4 16 C-5.41131097 12.23948152 -4.5449072 9.97977756 -3.125 6.3125 C-2.75632812 5.33925781 -2.38765625 4.36601562 -2.0078125 3.36328125 C-1 1 -1 1 0 0 Z " fill="#7135F3" transform="translate(349,360)"/>
<path d="M0 0 C-0.33 0.99 -0.66 1.98 -1 3 C-2.010625 3.12375 -3.02125 3.2475 -4.0625 3.375 C-8.01401901 3.90217826 -8.01401901 3.90217826 -11.75 5.1875 C-12.8225 5.455625 -13.895 5.72375 -15 6 C-15.99 5.34 -16.98 4.68 -18 4 C-15.5636811 3.32873871 -13.12611117 2.66283646 -10.6875 2 C-9.65206055 1.71382812 -9.65206055 1.71382812 -8.59570312 1.421875 C-5.64212051 0.62283816 -3.07440781 0 0 0 Z " fill="#9D63FB" transform="translate(812,150)"/>
<path d="M0 0 C1.96470837 3.50840781 2.9276928 7.13969407 4 11 C4.33 11.66 4.66 12.32 5 13 C5.039992 14.99960012 5.04346799 17.00047242 5 19 C2.14455961 16.14455961 1.73008522 12.75028192 0.8125 8.9375 C0.52729492 7.81891602 0.52729492 7.81891602 0.23632812 6.67773438 C-0.22660953 4.79694337 -0.6193285 2.89915121 -1 1 C-0.67 0.67 -0.34 0.34 0 0 Z " fill="#9F69F9" transform="translate(763,852)"/>
<path d="M0 0 C-4.63433649 3.51570354 -10.26860606 4.67697458 -16 5 C-16.66 4.34 -17.32 3.68 -18 3 C-15.75376301 2.30030318 -13.50283586 1.61564957 -11.25 0.9375 C-9.99703125 0.55464844 -8.7440625 0.17179687 -7.453125 -0.22265625 C-4.3261992 -0.92656828 -2.90533954 -1.16653785 0 0 Z " fill="#A062FB" transform="translate(905,126)"/>
<path d="M0 0 C-3.58727128 2.08351615 -7.20694042 2.80141379 -11.25 3.625 C-13.14492188 4.01558594 -13.14492188 4.01558594 -15.078125 4.4140625 C-16.04234375 4.60742188 -17.0065625 4.80078125 -18 5 C-18 4.34 -18 3.68 -18 3 C-16.75108386 2.51801537 -15.50081192 2.03954323 -14.25 1.5625 C-13.55390625 1.29566406 -12.8578125 1.02882813 -12.140625 0.75390625 C-7.6134395 -0.84052222 -4.77482794 -0.97666935 0 0 Z " fill="#9B53FB" transform="translate(341,1083)"/>
<path d="M0 0 C0.99 0.495 0.99 0.495 2 1 C2.37890625 3.03125 2.37890625 3.03125 2.5625 5.5 C2.5792263 8.54981525 2.5792263 8.54981525 4 11 C4.04063832 12.66617115 4.042721 14.33388095 4 16 C3.34 16 2.68 16 2 16 C0.80911014 10.61972975 -0.2919519 5.54708616 0 0 Z " fill="#6C2CF4" transform="translate(334,438)"/>
<path d="M0 0 C0.99 0.33 1.98 0.66 3 1 C-0.3 4.3 -3.6 7.6 -7 11 C-7.66 10.34 -8.32 9.68 -9 9 C-6.03 6.03 -3.06 3.06 0 0 Z " fill="#7F3FF8" transform="translate(395,294)"/>
<path d="M0 0 C1 3 1 3 0.28735352 4.7175293 C-0.09493408 5.33023682 -0.47722168 5.94294434 -0.87109375 6.57421875 C-1.28037109 7.24130859 -1.68964844 7.90839844 -2.11132812 8.59570312 C-2.54896484 9.28599609 -2.98660156 9.97628906 -3.4375 10.6875 C-4.0881543 11.7403418 -4.0881543 11.7403418 -4.75195312 12.81445312 C-5.82550587 14.54865372 -6.91158654 16.27508744 -8 18 C-8.33 17.34 -8.66 16.68 -9 16 C-8.00390625 13.3984375 -8.00390625 13.3984375 -6.5625 10.375 C-6.08941406 9.37210937 -5.61632812 8.36921875 -5.12890625 7.3359375 C-4.75636719 6.56507813 -4.38382812 5.79421875 -4 5 C-3.34 5 -2.68 5 -2 5 C-2 4.01 -2 3.02 -2 2 C-1.34 2 -0.68 2 0 2 C0 1.34 0 0.68 0 0 Z " fill="#803BF7" transform="translate(472,266)"/>
<path d="M0 0 C5.07612318 -0.61528766 7.82982006 1.38341651 12 4 C11.67 4.66 11.34 5.32 11 6 C4.08571429 5.05714286 4.08571429 5.05714286 1 3 C0.67 2.01 0.34 1.02 0 0 Z " fill="#125EFA" transform="translate(689,513)"/>
<path d="M0 0 C0.66 0.33 1.32 0.66 2 1 C-1.63 4.96 -5.26 8.92 -9 13 C-9.66 12.67 -10.32 12.34 -11 12 C-7.37 8.04 -3.74 4.08 0 0 Z " fill="#9951FB" transform="translate(340,855)"/>
<path d="M0 0 C0 0.66 0 1.32 0 2 C-1.58298026 2.4803318 -3.16639978 2.95921612 -4.75 3.4375 C-6.07257812 3.83775391 -6.07257812 3.83775391 -7.421875 4.24609375 C-9.60565835 4.88468494 -11.78835498 5.46775833 -14 6 C-13.67 5.01 -13.34 4.02 -13 3 C-11.07421875 2.05078125 -11.07421875 2.05078125 -8.6875 1.3125 C-7.90761719 1.06113281 -7.12773438 0.80976562 -6.32421875 0.55078125 C-4 0 -4 0 0 0 Z " fill="#5429D9" transform="translate(598,777)"/>
<path d="M0 0 C-3.7559214 3.42931954 -8.23466745 4.56429083 -13 6 C-13 5.01 -13 4.02 -13 3 C-8.37802694 0.78145293 -5.23175837 -0.38281159 0 0 Z " fill="#4D27D2" transform="translate(628,766)"/>
<path d="M0 0 C0.33 0.66 0.66 1.32 1 2 C0.00390625 4.3828125 0.00390625 4.3828125 -1.4375 7.125 C-1.91058594 8.03507813 -2.38367188 8.94515625 -2.87109375 9.8828125 C-3.24363281 10.58148437 -3.61617187 11.28015625 -4 12 C-4.33 12 -4.66 12 -5 12 C-4.64989059 3.64989059 -4.64989059 3.64989059 -1.9375 0.9375 C-1.298125 0.628125 -0.65875 0.31875 0 0 Z " fill="#A57AF9" transform="translate(778,901)"/>
<path d="M0 0 C4.67239145 2.13206212 8.59287819 4.02502456 12 8 C8.27792613 8 6.53604411 6.82035432 3.3125 5 C2.31863281 4.443125 1.32476563 3.88625 0.30078125 3.3125 C-0.45847656 2.879375 -1.21773437 2.44625 -2 2 C-1.34 1.34 -0.68 0.68 0 0 Z " fill="#421ECC" transform="translate(631,764)"/>
<path d="M0 0 C0.66 0 1.32 0 2 0 C2 0.99 2 1.98 2 3 C2.66 3 3.32 3 4 3 C5.5078125 5.1875 5.5078125 5.1875 7.125 8 C7.66382813 8.928125 8.20265625 9.85625 8.7578125 10.8125 C9.37269531 11.8953125 9.37269531 11.8953125 10 13 C9.01 13 8.02 13 7 13 C5.17578125 10.6640625 5.17578125 10.6640625 3.3125 7.625 C2.68988281 6.62726562 2.06726563 5.62953125 1.42578125 4.6015625 C0 2 0 2 0 0 Z " fill="#1161FB" transform="translate(784,619)"/>
<path d="M0 0 C0 0.66 0 1.32 0 2 C-2.12232979 3.17176518 -4.24757791 4.33754785 -6.375 5.5 C-6.97828125 5.83386719 -7.5815625 6.16773438 -8.203125 6.51171875 C-12.7734375 9 -12.7734375 9 -15 9 C-15 8.34 -15 7.68 -15 7 C-4.81818182 0 -4.81818182 0 0 0 Z " fill="#1368FA" transform="translate(819,950)"/>
<path d="M0 0 C1.125 1.5625 1.125 1.5625 2 4 C1.125 7.75 1.125 7.75 0 11 C-0.66 11 -1.32 11 -2 11 C-2.33 12.32 -2.66 13.64 -3 15 C-3.36263859 9.1977825 -2.25684543 5.36000789 0 0 Z " fill="#6137D5" transform="translate(524,276)"/>
<path d="M0 0 C4.30764815 1.56641751 8.06171464 3.68336156 12 6 C12 6.66 12 7.32 12 8 C12.99 8.33 13.98 8.66 15 9 C14.01 9.495 14.01 9.495 13 10 C11.0170112 8.71389867 9.03866624 7.42150861 7.0625 6.125 C5.96035156 5.40570313 4.85820313 4.68640625 3.72265625 3.9453125 C1 2 1 2 0 0 Z " fill="#522CC7" transform="translate(606,444)"/>
<path d="M0 0 C0.33 0.99 0.66 1.98 1 3 C1.598125 3.268125 2.19625 3.53625 2.8125 3.8125 C5.93576046 5.50798425 7.18267347 8.01439213 9 11 C8.01 11 7.02 11 6 11 C4.17578125 9.03125 4.17578125 9.03125 2.3125 6.5 C1.68988281 5.6646875 1.06726563 4.829375 0.42578125 3.96875 C-0.04472656 3.3190625 -0.51523437 2.669375 -1 2 C-0.67 1.34 -0.34 0.68 0 0 Z " fill="#7134F0" transform="translate(373,534)"/>
<path d="M0 0 C0.33 0.66 0.66 1.32 1 2 C1.66 2 2.32 2 3 2 C3 2.66 3 3.32 3 4 C0.03 5.32 -2.94 6.64 -6 8 C-4.21844267 4.43688534 -2.83236991 2.64354525 0 0 Z " fill="#2565FB" transform="translate(773,969)"/>
<path d="M0 0 C2.63861452 3.18453477 5.1832328 6.27084628 7 10 C6.57421875 12.15234375 6.57421875 12.15234375 6 14 C4.9923048 12.2335343 3.99408286 10.46166177 3 8.6875 C2.443125 7.70136719 1.88625 6.71523438 1.3125 5.69921875 C0 3 0 3 0 0 Z " fill="#6F33EF" transform="translate(350,498)"/>
<path d="M0 0 C0.99 0.33 1.98 0.66 3 1 C1.71451591 2.33929505 0.42141845 3.67128643 -0.875 5 C-1.59429688 5.7425 -2.31359375 6.485 -3.0546875 7.25 C-5 9 -5 9 -7 9 C-5.44499019 5.18315774 -2.96404505 2.80804268 0 0 Z " fill="#5423D9" transform="translate(552,230)"/>
<path d="M0 0 C0 0.66 0 1.32 0 2 C-1.74440798 2.55941359 -3.49585257 3.09691897 -5.25 3.625 C-6.22453125 3.92664063 -7.1990625 4.22828125 -8.203125 4.5390625 C-11.31678461 5.05220752 -12.41569255 4.71056541 -15 3 C-12.87562952 2.49733206 -10.75048274 1.9979439 -8.625 1.5 C-7.44164062 1.2215625 -6.25828125 0.943125 -5.0390625 0.65625 C-2 0 -2 0 0 0 Z " fill="#8859F5" transform="translate(719,175)"/>
</svg>